<?xml version="1.0" encoding="UTF-8"?>
<svg width="92px" height="92px" viewBox="0 0 92 92" version="1.1" xmlns="http://www.w3.org/2000/svg" xmlns:xlink="http://www.w3.org/1999/xlink">
    <!-- Generator: Sketch 42 (36781) - http://www.bohemiancoding.com/sketch -->
    <title>Git-Icon-1788C</title>
    <desc>Created with Sketch.</desc>
    <defs>
        <polygon id="path-1" points="0.06 92 0.06 0.114 91.888 0.114 91.888 92"></polygon>
    </defs>
    <g id="Page-1" stroke="none" stroke-width="1" fill="none" fill-rule="evenodd">
        <g id="Git-Icon-1788C">
            <mask id="mask-2" fill="white">
                <use xlink:href="#path-1"></use>
            </mask>
            <g id="Clip-2"></g>
            <path d="M90.154,41.965 L50.035,1.847 C47.726,-0.464 43.979,-0.464 41.666,1.847 L33.336,10.179 L43.903,20.747 C46.359,19.917 49.176,20.474 51.133,22.431 C53.102,24.401 53.653,27.241 52.803,29.706 L62.988,39.891 C65.453,39.041 68.295,39.59 70.264,41.562 C73.014,44.311 73.014,48.768 70.264,51.519 C67.512,54.271 63.056,54.271 60.303,51.519 C58.234,49.449 57.723,46.409 58.771,43.861 L49.271,34.362 L49.271,59.358 C49.941,59.69 50.574,60.133 51.133,60.69 C53.883,63.44 53.883,67.896 51.133,70.65 C48.383,73.399 43.924,73.399 41.176,70.65 C38.426,67.896 38.426,63.44 41.176,60.69 C41.855,60.011 42.643,59.497 43.482,59.153 L43.482,33.925 C42.643,33.582 41.857,33.072 41.176,32.389 C39.093,30.307 38.592,27.249 39.66,24.691 L29.242,14.271 L1.732,41.779 C-0.578,44.092 -0.578,47.839 1.732,50.15 L41.853,90.268 C44.163,92.578 47.909,92.578 50.223,90.268 L90.154,50.336 C92.466,48.025 92.466,44.275 90.154,41.965" id="Fill-1" fill="#DE4C36" mask="url(#mask-2)"></path>
        </g>
    </g>
</svg>
