<?xml version="1.0" encoding="UTF-8" standalone="no"?>
<svg width="16px" height="16px" viewBox="0 0 16 16" version="1.1" xmlns="http://www.w3.org/2000/svg" xmlns:xlink="http://www.w3.org/1999/xlink">
    <!-- Generator: Sketch 41.2 (35397) - http://www.bohemiancoding.com/sketch -->
    <title>Shape</title>
    <desc>Created with Sketch.</desc>
    <defs></defs>
    <g id="Page-1" stroke="none" stroke-width="1" fill="none" fill-rule="evenodd">
        <path d="M14.9,0.9 C13.8,-0.1 12.4,-0.4 11.8,0.5 C11.1,1.6 12.3,2.2 11.5,3 C11,3.6 9.5,2.2 9.5,2.2 L8.7,1.4 L7.3,2.8 C6.7,3.5 5.2,4.3 4.7,3.9 C4,3.3 4.8,2.1 4.2,1.3 C3.5,0.3 2.1,0.5 1.2,1.6 C0.2,2.7 -0.2,4 0.7,4.6 C1.8,5.3 2.6,4.3 3.4,5.1 C3.8,5.5 3.2,6.8 2.9,7.2 L0.6,9.5 L7.1,16 L8.8,14.3 C9.5,13.6 10.3,12.3 9.9,11.9 C9.3,11.2 8.2,12 7.4,11.5 C6.4,10.8 6.6,9.5 7.7,8.5 C8.8,7.5 10.2,7.2 10.8,8.1 C11.5,9.2 10.4,9.9 11.2,10.7 C11.6,11.1 12.8,10.5 13.2,10.1 L15.3,8 L14.2,6.9 C13.6,6.3 12.3,4.9 12.8,4.4 C13.4,3.7 14.5,4.6 15.3,4 C16.2,3.2 15.9,1.9 14.9,0.9 L14.9,0.9 Z" id="Shape" fill="#F74219"></path>
    </g>
</svg>
